<svg version="1.1" id="Layer_1" xmlns="http://www.w3.org/2000/svg" xmlns:xlink="http://www.w3.org/1999/xlink" x="0px" y="0px"
	 width="100%" viewBox="0 0 500 500" enable-background="new 0 0 500 500" xml:space="preserve">
<path fill="#000000" opacity="1.000000" stroke="none" 
	d="
M256.000000,501.000000 
	C170.666687,501.000000 85.833374,501.000000 1.000046,501.000000 
	C1.000030,334.333405 1.000030,167.666794 1.000015,1.000135 
	C167.666565,1.000090 334.333130,1.000090 500.999756,1.000045 
	C500.999847,167.666519 500.999847,334.333038 500.999939,500.999786 
	C419.500000,501.000000 338.000000,501.000000 256.000000,501.000000 
M184.040787,172.961823 
	C184.040787,172.961823 184.044113,172.938004 183.190079,173.225098 
	C183.124313,173.716278 183.001038,174.207474 183.000977,174.698654 
	C182.995438,225.280777 182.993179,275.862885 183.039734,326.444977 
	C183.040817,327.616119 183.598450,328.786743 184.845413,329.979218 
	C189.139221,329.985443 193.459976,330.271545 197.713699,329.861755 
	C199.443146,329.695129 201.642609,328.409363 202.571365,326.957001 
	C206.829681,320.297882 210.727493,313.407532 214.725403,306.583008 
	C216.192062,304.079346 217.577759,301.528229 219.771286,298.594055 
	C219.822174,288.074066 219.873077,277.554047 220.870010,267.016327 
	C223.028290,267.010864 225.207352,266.809509 227.341080,267.035675 
	C234.522583,267.797058 239.969025,266.838654 243.200104,258.693085 
	C246.374603,250.690201 251.643478,243.518112 255.714035,235.135406 
	C254.227859,235.067902 252.742233,234.960480 251.255402,234.939301 
	C240.819611,234.790588 230.383575,234.659653 219.986084,234.549347 
	C219.986084,234.549347 220.032135,234.556717 220.003510,233.541000 
	C220.037415,223.347687 220.071320,213.154373 220.626740,202.966690 
	C220.800568,202.963165 220.974396,202.959656 222.050125,202.843292 
	C234.626999,202.872330 247.203857,202.901352 260.614563,202.967377 
	C264.584961,204.569016 268.555359,206.170654 272.823425,207.892365 
	C278.409729,198.366669 284.345581,188.244904 290.541534,177.679581 
	C284.849426,174.649567 279.224365,172.633255 272.384888,172.330490 
	C271.733948,172.223190 271.083038,172.022446 270.432037,172.022018 
	C242.851151,172.004028 215.270248,171.991394 187.689468,172.043091 
	C186.467789,172.045395 185.247253,172.654480 184.040787,172.961823 
M279.667755,329.689148 
	C283.388092,328.998840 287.232208,328.695435 290.807373,327.551392 
	C306.453522,322.544617 314.065216,310.523376 317.946014,295.509399 
	C318.642181,292.816101 319.165649,289.876434 318.851440,287.156494 
	C316.849640,269.830261 308.267670,257.146790 291.982666,250.091339 
	C290.943756,249.641220 290.072144,248.804916 289.329071,248.291000 
	C293.682526,244.557526 298.172394,241.752609 301.289154,237.850845 
	C313.908325,222.053329 314.217041,202.453827 301.808228,187.058487 
	C298.707123,183.211014 297.297791,183.140610 294.986694,187.516647 
	C294.600677,188.247528 294.201996,188.971741 293.819153,189.704254 
	C287.550293,201.699371 278.771332,212.377350 275.031799,225.716339 
	C274.562714,227.389633 273.156769,228.807831 272.151520,230.322067 
	C265.025696,241.056046 257.812866,251.733582 250.816193,262.550995 
	C249.130386,265.157410 250.080093,267.009766 253.505447,266.994751 
	C258.165833,266.974335 262.830872,266.873474 267.486053,267.034363 
	C277.217682,267.370758 281.328674,270.406860 284.129883,279.045776 
	C287.295959,288.809998 281.150818,298.051697 269.897491,299.046478 
	C257.450684,299.035309 245.003784,299.000702 232.557220,299.051300 
	C231.385773,299.056061 230.216492,299.596985 228.715057,300.503510 
	C223.463806,309.758148 218.212540,319.012756 212.478668,328.713501 
	C214.022247,329.140015 215.564392,329.931854 217.109604,329.937866 
	C237.724960,330.018250 258.340729,329.988647 279.667755,329.689148 
z"/>
<path fill="#030303" opacity="1.000000" stroke="none" 
	d="
M219.000397,298.998749 
	C217.577759,301.528229 216.192062,304.079346 214.725403,306.583008 
	C210.727493,313.407532 206.829681,320.297882 202.571365,326.957001 
	C201.642609,328.409363 199.443146,329.695129 197.713699,329.861755 
	C193.459976,330.271545 189.139221,329.985443 184.419220,329.504639 
	C184.010040,276.999390 184.027084,224.968704 184.044113,172.938004 
	C184.044113,172.938004 184.040787,172.961823 184.500122,172.975891 
	C214.275833,172.984665 243.592224,172.979355 272.908600,172.974060 
	C279.224365,172.633255 284.849426,174.649567 290.541534,177.679581 
	C284.345581,188.244904 278.409729,198.366669 272.823425,207.892365 
	C268.555359,206.170654 264.584961,204.569016 259.892517,202.709473 
	C250.408508,202.357147 241.646164,202.171570 232.884781,202.209793 
	C228.971588,202.226868 225.060333,202.693527 221.148209,202.956146 
	C220.974396,202.959656 220.800568,202.963165 219.976013,203.167358 
	C219.220505,212.751617 219.083694,222.135147 219.057190,231.518982 
	C219.054337,232.530624 219.691727,233.544098 220.032135,234.556717 
	C220.032135,234.556717 219.986084,234.549347 219.811523,235.019775 
	C231.755722,235.653961 243.874481,235.817688 255.993256,235.981430 
	C251.643478,243.518112 246.374603,250.690201 243.200104,258.693085 
	C239.969025,266.838654 234.522583,267.797058 227.341080,267.035675 
	C225.207352,266.809509 223.028290,267.010864 220.044876,267.264771 
	C219.146622,278.008423 219.073502,288.503571 219.000397,298.998749 
z"/>
<path fill="#030303" opacity="1.000000" stroke="none" 
	d="
M270.810455,299.076813 
	C281.150818,298.051697 287.295959,288.809998 284.129883,279.045776 
	C281.328674,270.406860 277.217682,267.370758 267.486053,267.034363 
	C262.830872,266.873474 258.165833,266.974335 253.505447,266.994751 
	C250.080093,267.009766 249.130386,265.157410 250.816193,262.550995 
	C257.812866,251.733582 265.025696,241.056046 272.151520,230.322067 
	C273.156769,228.807831 274.562714,227.389633 275.031799,225.716339 
	C278.771332,212.377350 287.550293,201.699371 293.819153,189.704254 
	C294.201996,188.971741 294.600677,188.247528 294.986694,187.516647 
	C297.297791,183.140610 298.707123,183.211014 301.808228,187.058487 
	C314.217041,202.453827 313.908325,222.053329 301.289154,237.850845 
	C298.172394,241.752609 293.682526,244.557526 289.329071,248.291000 
	C290.072144,248.804916 290.943756,249.641220 291.982666,250.091339 
	C308.267670,257.146790 316.849640,269.830261 318.851440,287.156494 
	C319.165649,289.876434 318.642181,292.816101 317.946014,295.509399 
	C314.065216,310.523376 306.453522,322.544617 290.807373,327.551392 
	C287.232208,328.695435 283.388092,328.998840 279.058075,329.502655 
	C258.718048,329.215057 238.987518,329.135284 219.257584,328.981506 
	C217.157074,328.965118 215.059967,328.515839 212.961273,328.267395 
	C218.212540,319.012756 223.463806,309.758148 229.344040,300.245636 
	C242.077621,299.987823 254.182419,300.019592 266.286591,299.947662 
	C267.796234,299.938721 269.302582,299.380524 270.810455,299.076813 
z"/>
<path fill="#D2D2D2" opacity="1.000000" stroke="none" 
	d="
M183.617096,173.081543 
	C184.027084,224.968704 184.010040,276.999390 183.944763,329.493835 
	C183.598450,328.786743 183.040817,327.616119 183.039734,326.444977 
	C182.993179,275.862885 182.995438,225.280777 183.000977,174.698654 
	C183.001038,174.207474 183.124313,173.716278 183.617096,173.081543 
z"/>
<path fill="#484848" opacity="1.000000" stroke="none" 
	d="
M272.646729,172.652283 
	C243.592224,172.979355 214.275833,172.984665 184.492828,172.985443 
	C185.247253,172.654480 186.467789,172.045395 187.689468,172.043091 
	C215.270248,171.991394 242.851151,172.004028 270.432037,172.022018 
	C271.083038,172.022446 271.733948,172.223190 272.646729,172.652283 
z"/>
<path fill="#484848" opacity="1.000000" stroke="none" 
	d="
M212.719971,328.490417 
	C215.059967,328.515839 217.157074,328.965118 219.257584,328.981506 
	C238.987518,329.135284 258.718048,329.215057 278.702393,329.651306 
	C258.340729,329.988647 237.724960,330.018250 217.109604,329.937866 
	C215.564392,329.931854 214.022247,329.140015 212.719971,328.490417 
z"/>
<path fill="#D2D2D2" opacity="1.000000" stroke="none" 
	d="
M270.353973,299.061646 
	C269.302582,299.380524 267.796234,299.938721 266.286591,299.947662 
	C254.182419,300.019592 242.077621,299.987823 229.509613,299.938385 
	C230.216492,299.596985 231.385773,299.056061 232.557220,299.051300 
	C245.003784,299.000702 257.450684,299.035309 270.353973,299.061646 
z"/>
<path fill="#484848" opacity="1.000000" stroke="none" 
	d="
M221.599167,202.899719 
	C225.060333,202.693527 228.971588,202.226868 232.884781,202.209793 
	C241.646164,202.171570 250.408508,202.357147 259.475586,202.690979 
	C247.203857,202.901352 234.626999,202.872330 221.599167,202.899719 
z"/>
<path fill="#D2D2D2" opacity="1.000000" stroke="none" 
	d="
M255.853638,235.558411 
	C243.874481,235.817688 231.755722,235.653961 219.792282,235.006622 
	C230.383575,234.659653 240.819611,234.790588 251.255402,234.939301 
	C252.742233,234.960480 254.227859,235.067902 255.853638,235.558411 
z"/>
<path fill="#7D7D7D" opacity="1.000000" stroke="none" 
	d="
M219.385834,298.796387 
	C219.073502,288.503571 219.146622,278.008423 219.571854,267.273651 
	C219.873077,277.554047 219.822174,288.074066 219.385834,298.796387 
z"/>
<path fill="#7D7D7D" opacity="1.000000" stroke="none" 
	d="
M220.017822,234.048859 
	C219.691727,233.544098 219.054337,232.530624 219.057190,231.518982 
	C219.083694,222.135147 219.220505,212.751617 219.715256,203.164536 
	C220.071320,213.154373 220.037415,223.347687 220.017822,234.048859 
z"/>
</svg>