<?xml version="1.0" encoding="UTF-8" standalone="no"?>
<!-- Created with Inkscape (http://www.inkscape.org/) -->

<svg
   version="1.1"
   id="svg1"
   viewBox="0 0 1920 1920"
   sodipodi:docname="b2-icon.svg"
   inkscape:version="1.3.2 (091e20e, 2023-11-25, custom)"
   xmlns:inkscape="http://www.inkscape.org/namespaces/inkscape"
   xmlns:sodipodi="http://sodipodi.sourceforge.net/DTD/sodipodi-0.dtd"
   xmlns="http://www.w3.org/2000/svg"
   xmlns:svg="http://www.w3.org/2000/svg">
  <defs
     id="defs1" />
  <sodipodi:namedview
     id="namedview1"
     pagecolor="#ffffff"
     bordercolor="#000000"
     borderopacity="0.25"
     inkscape:showpageshadow="2"
     inkscape:pageopacity="0.0"
     inkscape:pagecheckerboard="0"
     inkscape:deskcolor="#d1d1d1"
     showgrid="false"
     inkscape:zoom="0.40989583"
     inkscape:cx="972.19823"
     inkscape:cy="872.17282"
     inkscape:window-width="1920"
     inkscape:window-height="1001"
     inkscape:window-x="-9"
     inkscape:window-y="-9"
     inkscape:window-maximized="1"
     inkscape:current-layer="g1" />
  <g
     inkscape:groupmode="layer"
     inkscape:label="Image"
     id="g1">
    <path
       style="fill:#fff"
       d="M 750.79289,979.49578 V 677.47436 l 177.24996,0.31671 c 175.94005,0.31436 177.32045,0.33226 186.77285,2.42219 18.5472,4.10081 45.8509,14.99125 45.2392,18.04428 -0.2416,1.20561 -66.7122,114.72504 -68.5044,116.99284 -0.7293,0.9227 -2.3774,-0.017 -6.5453,-3.7318 -6.3609,-5.6693 -17.9255,-11.9945 -26.7123,-14.6101 -5.5037,-1.6382 -12.804,-1.8146 -88.25005,-2.1321 l -82.25,-0.3461 v 63.5435 63.5434 h 70.5 c 38.775,0 70.50005,0.1753 70.50005,0.3896 0,0.6059 -66.02025,112.76182 -68.20085,115.86032 l -1.9354,2.75 h -35.4319 -35.4319 v 60.6699 60.6699 l -35.133,59.8302 -35.133,59.8301 h -33.36696 -33.367 z m 106.99996,301.63932 c 0,-0.2439 15.033,-26.0203 33.4068,-57.2807 l 33.4067,-56.8373 82.84335,-0.5036 c 82.3512,-0.5006 82.8775,-0.5167 88.6185,-2.7048 21.8865,-8.342 37.0066,-24.6279 42.1089,-45.3555 2.0188,-8.201 2.0547,-21.4486 0.081,-29.8221 -4.6297,-19.6405 -19.9457,-36.8156 -39.9651,-44.8164 l -7,-2.7976 -45.75,-0.297 c -25.1625,-0.1633 -45.75005,-0.5529 -45.75005,-0.8658 0,-0.3129 16.75325,-29.0828 37.22935,-63.93322 35.0992,-59.7387 37.4991,-63.5391 41.9432,-66.4188 6.3331,-4.1037 15.8347,-14.6382 19.5878,-21.7174 3.6814,-6.9436 6.995,-17.9101 7.5009,-24.8242 0.3354,-4.5839 4.1852,-11.5475 41.1878,-74.5 22.4499,-38.19395 41.0322,-69.66852 41.2941,-69.94352 0.7959,-0.83564 14.4822,14.37054 20.6731,22.96895 11.3122,15.71128 20.9912,38.07157 25.1197,58.03107 3.6422,17.609 3.5834,42.0701 -0.1454,60.5 -9.0625,44.791 -38.7547,83.6153 -80.136,104.7823 -4.535,2.3197 -8.2475,4.4611 -8.25,4.7586 0,0.2974 3.015,1.3454 6.7055,2.3288 16.0544,4.2778 35.7366,14.0866 50.5008,25.1673 60.479,45.39022 80.4335,126.85372 47.7719,195.02692 -21.3272,44.5156 -61.4727,75.6412 -111.8315,86.7051 -9.5256,2.0929 -11.4182,2.1248 -145.40125,2.4565 -74.6625,0.1848 -135.75,0.1364 -135.75,-0.1076 z"
       id="path1" />
  </g>
</svg>
