<?xml version="1.0" standalone="no"?>
<!DOCTYPE svg PUBLIC "-//W3C//DTD SVG 20010904//EN"
 "http://www.w3.org/TR/2001/REC-SVG-20010904/DTD/svg10.dtd">
<svg version="1.0" xmlns="http://www.w3.org/2000/svg"
 width="500.000000pt" height="500.000000pt" viewBox="0 0 500.000000 500.000000"
 preserveAspectRatio="xMidYMid meet">

<g transform="translate(0.000000,500.000000) scale(0.100000,-0.100000)"
fill="#000000" stroke="none">
<path d="M2505 3155 c0 -253 1 -355 2 -227 2 128 2 335 0 460 -1 125 -2 20 -2
-233z"/>
<path d="M1650 3190 c-36 -4 -123 -8 -193 -9 -120 -1 -156 -11 -88 -24 56 -11
65 -47 71 -262 l5 -190 52 -3 53 -3 2 228 3 228 55 12 c77 18 234 17 293 -1
127 -39 187 -133 156 -244 -17 -60 -71 -113 -180 -174 l-84 -48 66 0 c53 0 77
6 125 30 126 63 184 139 184 243 0 67 -12 102 -48 140 -35 37 -84 62 -150 76
-57 12 -218 12 -322 1z"/>
<path d="M3041 3185 c-123 -35 -198 -87 -249 -174 -23 -40 -27 -57 -27 -126 0
-70 4 -86 28 -128 16 -27 34 -50 41 -53 7 -3 51 -4 97 -2 l84 3 -35 19 c-45
23 -98 73 -117 109 -22 43 -18 129 7 182 93 191 427 233 589 73 19 -18 46 -51
60 -73 l26 -40 3 84 c2 46 1 85 -1 87 -2 2 -39 13 -83 25 -107 28 -345 36
-423 14z"/>
<path d="M1590 2540 l0 -70 44 0 c51 0 76 21 59 49 -6 10 -9 29 -6 44 4 22 1
28 -22 37 -14 5 -37 10 -51 10 -23 0 -24 -2 -24 -70z m86 38 c9 -15 -25 -40
-51 -36 -12 2 -21 12 -23 26 -3 19 1 22 32 22 19 0 38 -5 42 -12z m7 -62 c8
-21 -13 -36 -50 -36 -29 0 -33 3 -33 25 0 22 4 25 39 25 24 0 41 -5 44 -14z"/>
<path d="M1982 2544 c-18 -37 -31 -68 -28 -71 2 -3 9 5 16 16 8 15 20 21 45
21 25 0 37 -6 45 -21 7 -11 14 -18 17 -15 5 5 -52 136 -59 136 -2 0 -18 -30
-36 -66z m53 6 l16 -30 -31 0 c-16 0 -30 2 -30 5 0 7 23 55 26 55 2 0 10 -13
19 -30z"/>
<path d="M2203 2600 c-24 -10 -43 -39 -43 -67 0 -47 71 -80 110 -52 11 8 8 9
-13 4 -63 -13 -103 34 -71 83 14 21 21 24 58 19 37 -5 39 -4 22 9 -22 16 -32
16 -63 4z"/>
<path d="M2698 2599 c-32 -18 -22 -49 22 -66 22 -9 40 -22 40 -29 0 -17 -32
-26 -67 -19 -21 5 -24 4 -13 -4 20 -14 63 -14 78 1 23 23 13 45 -29 61 -48 19
-48 40 2 47 27 4 30 7 16 13 -24 9 -28 9 -49 -4z"/>
<path d="M3110 2597 c-38 -19 -48 -61 -23 -95 40 -53 123 -33 123 31 0 38 -7
50 -37 66 -27 14 -32 14 -63 -2z m74 -23 c33 -32 5 -94 -43 -94 -40 0 -68 69
-39 98 17 17 64 15 82 -4z"/>
<path d="M3311 2539 c1 -41 4 -64 6 -51 3 16 11 22 29 22 41 0 64 18 64 50 0
34 -4 37 -58 46 l-42 7 1 -74z m84 21 c0 -22 -5 -25 -37 -28 -36 -3 -38 -2
-38 28 0 30 2 31 38 28 32 -3 37 -6 37 -28z"/>
<path d="M1790 2535 l0 -65 48 2 c43 1 44 2 10 5 l-38 4 0 60 c0 33 -4 59 -10
59 -6 0 -10 -28 -10 -65z"/>
<path d="M2370 2535 c0 -37 4 -65 10 -65 6 0 10 8 10 18 0 10 5 23 12 30 9 9
20 5 46 -20 24 -23 31 -27 24 -12 -6 11 -18 26 -26 34 -21 17 -20 29 6 59 13
14 4 8 -20 -14 l-42 -39 0 37 c0 20 -4 37 -10 37 -6 0 -10 -28 -10 -65z"/>
<path d="M2860 2535 c0 -37 4 -65 10 -65 6 0 10 14 10 30 0 28 2 30 40 30 38
0 40 -2 40 -30 0 -16 5 -30 10 -30 6 0 10 28 10 65 0 37 -4 65 -10 65 -5 0
-10 -11 -10 -25 0 -22 -4 -25 -40 -25 -36 0 -40 3 -40 25 0 14 -4 25 -10 25
-6 0 -10 -28 -10 -65z"/>
<path d="M1447 2363 c-4 -3 -7 -70 -8 -147 -1 -179 -10 -214 -66 -242 l-41
-21 176 -9 c98 -4 245 -8 327 -9 147 0 151 1 215 31 89 42 124 75 161 149 33
67 47 155 35 219 -7 36 -8 36 -56 36 l-49 0 1 -82 c2 -104 -20 -171 -73 -232
-92 -105 -291 -143 -468 -90 l-51 15 0 194 0 195 -48 0 c-27 0 -52 -3 -55 -7z"/>
<path d="M2499 1965 c-3 -225 -4 -412 -2 -414 11 -16 13 50 11 415 l-3 409 -6
-410z"/>
<path d="M3508 2343 c47 -68 54 -143 18 -218 -87 -186 -350 -231 -555 -94 -60
40 -147 128 -179 182 -9 15 -20 27 -25 27 -4 0 -7 -37 -5 -82 l3 -83 55 -37
c96 -65 200 -100 315 -106 122 -5 192 8 284 54 136 68 211 186 198 310 -3 30
-8 58 -12 64 -3 5 -31 10 -61 10 l-55 0 19 -27z"/>
</g>
</svg>
